<svg width="19" height="21" viewBox="0 0 19 21" fill="none" xmlns="http://www.w3.org/2000/svg">
<path d="M11.1572 8.38889V15.7778M7.09434 8.38889V15.7778M3.03145 4.16667V16.6222C3.03145 17.8046 3.03145 18.3953 3.25286 18.8469C3.44762 19.2441 3.75817 19.5677 4.14041 19.7701C4.57454 20 5.14313 20 6.27862 20H11.973C13.1084 20 13.6762 20 14.1103 19.7701C14.4926 19.5677 14.8042 19.2441 14.9989 18.8469C15.2201 18.3958 15.2201 17.8055 15.2201 16.6255V4.16667M3.03145 4.16667H5.06289M3.03145 4.16667H1M5.06289 4.16667H13.1887M5.06289 4.16667C5.06289 3.18301 5.06289 2.69143 5.21753 2.30347C5.42371 1.78619 5.81892 1.37496 6.31668 1.1607C6.69 1 7.16353 1 8.11006 1H10.1415C11.088 1 11.5613 1 11.9346 1.1607C12.4324 1.37496 12.8278 1.78619 13.0339 2.30347C13.1886 2.69143 13.1887 3.18301 13.1887 4.16667M13.1887 4.16667H15.2201M15.2201 4.16667H17.2516" stroke="white" stroke-width="2" stroke-linecap="round" stroke-linejoin="round"/>
</svg>
