<svg width="23" height="20" viewBox="0 0 23 20" fill="none" xmlns="http://www.w3.org/2000/svg">
<path fill-rule="evenodd" clip-rule="evenodd" d="M15.414 12.2702C16.074 11.1038 16.451 9.75389 16.451 8.31533C16.451 3.89711 12.8945 0.31543 8.50724 0.31543C4.12002 0.31543 0.563477 3.89711 0.563477 8.31533C0.563477 12.7335 4.12002 16.3152 8.50724 16.3152C10.7501 16.3152 12.7758 15.3792 14.2203 13.8738L20.7823 19.1295C21.2133 19.4747 21.8584 19.4184 22.223 19.0036C22.5877 18.5888 22.5338 17.9726 22.1028 17.6274L15.414 12.2702ZM13.9378 12.3592C14.7691 11.2289 15.2607 9.82994 15.2607 8.31533C15.2607 4.55914 12.2371 1.51415 8.50724 1.51415C4.77741 1.51415 1.75379 4.55914 1.75379 8.31533C1.75379 12.0715 4.77741 15.1165 8.50724 15.1165C10.6745 15.1165 12.6033 14.0884 13.839 12.4901C13.8666 12.4466 13.898 12.4044 13.9333 12.3642C13.9348 12.3625 13.9363 12.3609 13.9378 12.3592Z" fill="#153D8A"/>
</svg>
