<svg width="23" height="23" viewBox="0 0 23 23" fill="none" xmlns="http://www.w3.org/2000/svg">
<g clip-path="url(#clip0_363_2892)">
<path d="M18.3129 1.70898H7.76172V6.08448H20.5664V3.96157C20.5664 2.71938 19.5555 1.70898 18.3129 1.70898Z" fill="#E1E1EA"/>
<path d="M12.3407 6.75776H0V2.69777C0 1.21008 1.21061 0 2.69882 0H6.64458C7.03677 0 7.41457 0.0826492 7.7578 0.237946C8.2372 0.453957 8.64904 0.809998 8.93787 1.27518L12.3407 6.75776Z" fill="#0E295B"/>
<path d="M23 7.66669V20.7446C23 21.9883 21.9875 23 20.7432 23H2.2568C1.0125 23 0 21.9883 0 20.7446V5.41077H20.7432C21.9875 5.41077 23 6.42274 23 7.66669Z" fill="#153D8A"/>
<path d="M23 7.66669V20.7446C23 21.9883 21.9875 23 20.7432 23H11.5V5.41077H20.7432C21.9875 5.41077 23 6.42274 23 7.66669Z" fill="#153D8A"/>
<path d="M17.5503 14.2051C17.5503 17.5414 14.8362 20.2557 11.5003 20.2557C8.16428 20.2557 5.4502 17.5414 5.4502 14.2051C5.4502 10.8693 8.16428 8.15503 11.5003 8.15503C14.8362 8.15503 17.5503 10.8693 17.5503 14.2051Z" fill="#E1E1EA"/>
<path d="M17.5501 14.2051C17.5501 17.5414 14.836 20.2557 11.5 20.2557V8.15503C14.836 8.15503 17.5501 10.8693 17.5501 14.2051Z" fill="#E1E1EA"/>
<path d="M13.4501 14.2794C13.324 14.3863 13.1694 14.4384 13.0162 14.4384C12.8244 14.4384 12.6338 14.3571 12.5005 14.1989L12.1739 13.8118V16.3462C12.1739 16.7182 11.8721 17.02 11.5001 17.02C11.1281 17.02 10.8262 16.7182 10.8262 16.3462V13.8118L10.4997 14.1989C10.2593 14.4833 9.83446 14.5196 9.55001 14.2794C9.26574 14.0395 9.22924 13.6145 9.46911 13.3301L10.8029 11.7489C10.9768 11.5432 11.2305 11.4249 11.5001 11.4249C11.7696 11.4249 12.0233 11.5432 12.1972 11.7489L13.531 13.3301C13.7709 13.6145 13.7344 14.0395 13.4501 14.2794Z" fill="#153D8A"/>
<path d="M13.4501 14.2794C13.3239 14.3863 13.1693 14.4384 13.0161 14.4384C12.8243 14.4384 12.6338 14.3571 12.5004 14.1989L12.1738 13.8118V16.3462C12.1738 16.7182 11.872 17.02 11.5 17.02V11.4249C11.7695 11.4249 12.0233 11.5432 12.1972 11.7489L13.531 13.3301C13.7708 13.6145 13.7343 14.0395 13.4501 14.2794Z" fill="#153D8A"/>
</g>
<defs>
<clipPath id="clip0_363_2892">
<rect width="23" height="23" fill="white"/>
</clipPath>
</defs>
</svg>
