<svg width="21" height="22" viewBox="0 0 21 22" fill="none" xmlns="http://www.w3.org/2000/svg">
<path d="M7.33354 3.61111H4.37798C3.19565 3.61111 2.60404 3.61111 2.15245 3.84121C1.75522 4.04361 1.4325 4.36633 1.2301 4.76356C1 5.21516 1 5.80676 1 6.9891V17.1224C1 18.3048 1 18.8956 1.2301 19.3472C1.4325 19.7444 1.75522 20.0677 2.15245 20.2701C2.6036 20.5 3.19449 20.5 4.37452 20.5H14.5144C15.6944 20.5 16.2844 20.5 16.7356 20.2701C17.1328 20.0677 17.4566 19.7441 17.659 19.3469C17.8889 18.8958 17.8889 18.3055 17.8889 17.1255V14.1667M13.6667 4.66667L7.33333 11V14.1667H10.5L16.8333 7.83333M13.6667 4.66667L16.8333 1.5L20 4.66667L16.8333 7.83333M13.6667 4.66667L16.8333 7.83333" stroke="white" stroke-width="2" stroke-linecap="round" stroke-linejoin="round"/>
</svg>
