<svg width="23" height="17" viewBox="0 0 23 17" fill="none" xmlns="http://www.w3.org/2000/svg">
<path d="M2.61111 2.07143L9.39737 7.01314L9.39964 7.01495C10.1532 7.5478 10.5302 7.81439 10.9431 7.91737C11.308 8.0084 11.6917 8.0084 12.0566 7.91737C12.4699 7.8143 12.848 7.54693 13.6029 7.01314C13.6029 7.01314 17.9556 3.79208 20.3889 2.07143M1.5 12.5716V4.42878C1.5 3.22867 1.5 2.62816 1.74221 2.16978C1.95526 1.76658 2.29497 1.439 2.71311 1.23356C3.18847 1 3.81121 1 5.05577 1H17.9447C19.1892 1 19.8106 1 20.286 1.23356C20.7041 1.439 21.045 1.76658 21.258 2.16978C21.5 2.62772 21.5 3.22749 21.5 4.42526V12.5753C21.5 13.773 21.5 14.3719 21.258 14.8299C21.045 15.2331 20.7041 15.5612 20.286 15.7667C19.8111 16 19.19 16 17.9479 16H5.05212C3.80999 16 3.188 16 2.71311 15.7667C2.29497 15.5612 1.95526 15.2331 1.74221 14.8299C1.5 14.3715 1.5 13.7718 1.5 12.5716Z" stroke="#153D8A" stroke-width="2" stroke-linecap="round" stroke-linejoin="round"/>
</svg>
