<svg width="28" height="29" viewBox="0 0 28 29" fill="none" xmlns="http://www.w3.org/2000/svg">
<path d="M4.97913 22.4855C5.24149 24.4342 6.85551 25.9608 8.81962 26.0511C10.4723 26.127 12.1512 26.1667 14 26.1667C15.8488 26.1667 17.5277 26.127 19.1804 26.0511C21.1446 25.9608 22.7585 24.4342 23.0209 22.4855C23.1922 21.2138 23.3334 19.9105 23.3334 18.5833C23.3334 17.2561 23.1922 15.9529 23.0209 14.6812C22.7585 12.7325 21.1446 11.2059 19.1804 11.1156C17.5277 11.0396 15.8488 11 14 11C12.1512 11 10.4723 11.0396 8.81962 11.1156C6.85551 11.2059 5.24149 12.7325 4.97913 14.6812C4.80791 15.9529 4.66669 17.2561 4.66669 18.5833C4.66669 19.9105 4.80791 21.2138 4.97913 22.4855Z" stroke="#153D8A" stroke-width="1.75"/>
<path d="M8.75 11.0002V8.0835C8.75 5.184 11.1005 2.8335 14 2.8335C16.8995 2.8335 19.25 5.184 19.25 8.0835V11.0002" stroke="#153D8A" stroke-width="1.75" stroke-linecap="round" stroke-linejoin="round"/>
<path d="M18.6667 18.5718V18.5834" stroke="#153D8A" stroke-width="2.33333" stroke-linecap="round" stroke-linejoin="round"/>
<path d="M14 18.5718V18.5834" stroke="#153D8A" stroke-width="2.33333" stroke-linecap="round" stroke-linejoin="round"/>
<path d="M9.33331 18.5718V18.5834" stroke="#153D8A" stroke-width="2.33333" stroke-linecap="round" stroke-linejoin="round"/>
</svg>
