<svg width="20" height="23" viewBox="0 0 20 23" fill="none" xmlns="http://www.w3.org/2000/svg">
<path d="M13.375 8.24905L8.875 12.6973L6.625 10.4732M19 9.54466C19 16.849 13.4109 20.1237 11.0415 21.1839L11.0385 21.1852C10.7893 21.2967 10.6644 21.3526 10.3812 21.4006C10.2019 21.4311 9.79923 21.4311 9.6199 21.4006C9.3356 21.3524 9.20938 21.2963 8.95819 21.1839C6.58877 20.1238 1 16.849 1 9.54465V5.13548C1 3.88986 1 3.26658 1.24524 2.79081C1.46095 2.37231 1.80491 2.03231 2.22827 1.81908C2.70957 1.57666 3.3401 1.57666 4.60022 1.57666H15.4002C16.6603 1.57666 17.2895 1.57666 17.7708 1.81908C18.1942 2.03231 18.5393 2.37231 18.755 2.79081C19 3.26611 19 3.88864 19 5.13183V9.54466Z" stroke="#153D8A" stroke-width="2" stroke-linecap="round" stroke-linejoin="round"/>
</svg>
