<svg width="28" height="29" viewBox="0 0 28 29" fill="none" xmlns="http://www.w3.org/2000/svg">
<path d="M5.83331 11.0002C5.83331 7.15036 5.83331 5.22545 7.0293 4.02948C8.22527 2.8335 10.1502 2.8335 14 2.8335C17.8497 2.8335 19.7746 2.8335 20.9707 4.02948C22.1666 5.22545 22.1666 7.15036 22.1666 11.0002V18.0002C22.1666 21.8499 22.1666 23.7748 20.9707 24.9709C19.7746 26.1668 17.8497 26.1668 14 26.1668C10.1502 26.1668 8.22527 26.1668 7.0293 24.9709C5.83331 23.7748 5.83331 21.8499 5.83331 18.0002V11.0002Z" stroke="#153D8A" stroke-width="1.75" stroke-linecap="round"/>
<path d="M12.8333 22.6665H15.1666" stroke="#153D8A" stroke-width="1.75" stroke-linecap="round" stroke-linejoin="round"/>
<path d="M10.5 2.8335L10.6038 3.45652C10.8289 4.80667 10.9414 5.48175 11.4044 5.89254C11.8874 6.32106 12.5721 6.3335 14 6.3335C15.4279 6.3335 16.1126 6.32106 16.5956 5.89254C17.0587 5.48175 17.1711 4.80667 17.3962 3.45652L17.5 2.8335" stroke="#153D8A" stroke-width="1.75" stroke-linejoin="round"/>
</svg>
