<svg width="23" height="24" viewBox="0 0 23 24" fill="none" xmlns="http://www.w3.org/2000/svg">
<g clip-path="url(#clip0_363_2696)">
<path d="M18.3129 2.20898H7.76172V6.58448H20.5664V4.46157C20.5664 3.21938 19.5555 2.20898 18.3129 2.20898Z" fill="#E1E1EA"/>
<path d="M12.3407 7.25776H0V3.19777C0 1.71008 1.21061 0.5 2.69882 0.5H6.64458C7.03677 0.5 7.41457 0.582649 7.7578 0.737946C8.2372 0.953957 8.64904 1.31 8.93787 1.77518L12.3407 7.25776Z" fill="#0E295B"/>
<path d="M23 8.16669V21.2446C23 22.4883 21.9875 23.5 20.7432 23.5H2.2568C1.0125 23.5 0 22.4883 0 21.2446V5.91077H20.7432C21.9875 5.91077 23 6.92274 23 8.16669Z" fill="#153D8A"/>
<path d="M23 8.16669V21.2446C23 22.4883 21.9875 23.5 20.7432 23.5H11.5V5.91077H20.7432C21.9875 5.91077 23 6.92274 23 8.16669Z" fill="#153D8A"/>
<path d="M17.5503 14.7051C17.5503 18.0414 14.8362 20.7557 11.5003 20.7557C8.16428 20.7557 5.4502 18.0414 5.4502 14.7051C5.4502 11.3693 8.16428 8.65503 11.5003 8.65503C14.8362 8.65503 17.5503 11.3693 17.5503 14.7051Z" fill="#E1E1EA"/>
<path d="M17.5501 14.7051C17.5501 18.0414 14.836 20.7557 11.5 20.7557V8.65503C14.836 8.65503 17.5501 11.3693 17.5501 14.7051Z" fill="#E1E1EA"/>
<path d="M13.4501 14.7794C13.324 14.8863 13.1694 14.9384 13.0162 14.9384C12.8244 14.9384 12.6338 14.8571 12.5005 14.6989L12.1739 14.3118V16.8462C12.1739 17.2182 11.8721 17.52 11.5001 17.52C11.1281 17.52 10.8262 17.2182 10.8262 16.8462V14.3118L10.4997 14.6989C10.2593 14.9833 9.83446 15.0196 9.55001 14.7794C9.26574 14.5395 9.22924 14.1145 9.46911 13.8301L10.8029 12.2489C10.9768 12.0432 11.2305 11.9249 11.5001 11.9249C11.7696 11.9249 12.0233 12.0432 12.1972 12.2489L13.531 13.8301C13.7709 14.1145 13.7344 14.5395 13.4501 14.7794Z" fill="#153D8A"/>
<path d="M13.4501 14.7794C13.3239 14.8863 13.1693 14.9384 13.0161 14.9384C12.8243 14.9384 12.6338 14.8571 12.5004 14.6989L12.1738 14.3118V16.8462C12.1738 17.2182 11.872 17.52 11.5 17.52V11.9249C11.7695 11.9249 12.0233 12.0432 12.1972 12.2489L13.531 13.8301C13.7708 14.1145 13.7343 14.5395 13.4501 14.7794Z" fill="#153D8A"/>
</g>
<defs>
<clipPath id="clip0_363_2696">
<rect width="23" height="23" fill="white" transform="translate(0 0.5)"/>
</clipPath>
</defs>
</svg>
