<svg width="30" height="37" viewBox="0 0 30 37" fill="none" xmlns="http://www.w3.org/2000/svg">
<path d="M28.8509 32.9576C28.8509 33.6496 28.5855 34.3133 28.1133 34.8026C27.6409 35.2918 27.0005 35.5668 26.3326 35.5668H3.6675C2.99959 35.5668 2.35905 35.2918 1.88676 34.8026C1.41449 34.3133 1.14917 33.6496 1.14917 32.9576V4.25597C1.14917 3.56394 1.41449 2.90028 1.88676 2.41096C2.35905 1.92163 2.99959 1.64673 3.6675 1.64673H17.7344C18.4022 1.64673 19.0428 1.92163 19.5151 2.41096L28.1133 11.3195C28.5855 11.8088 28.8509 12.4725 28.8509 13.1645V32.9576Z" stroke="white" stroke-width="2" stroke-linecap="round" stroke-linejoin="round"/>
<path d="M16.4067 16.976H22.7026" stroke="white" stroke-width="2" stroke-linecap="round" stroke-linejoin="round"/>
<path d="M16.4067 26.0268H22.7026" stroke="white" stroke-width="2" stroke-linecap="round" stroke-linejoin="round"/>
<path d="M6.66785 25.879L8.77793 28.0653L12.2947 22.964" stroke="white" stroke-width="2" stroke-linecap="round" stroke-linejoin="round"/>
<path d="M6.66785 16.6651L8.77793 18.8514L12.2947 13.7501" stroke="white" stroke-width="2" stroke-linecap="round" stroke-linejoin="round"/>
</svg>
