<svg width="44" height="43" viewBox="0 0 44 43" fill="none" xmlns="http://www.w3.org/2000/svg">
<path d="M19.4542 35.3602L19.4542 25.1844C19.4542 24.4819 20.0237 23.9124 20.7262 23.9124L35.9899 23.9124C36.6924 23.9124 37.2619 24.4819 37.2619 25.1844L37.2619 35.3602C37.2619 36.0627 36.6924 36.6322 35.9899 36.6322L20.7262 36.6322C20.0237 36.6322 19.4542 36.0627 19.4542 35.3602Z" stroke="white" stroke-width="2" stroke-linecap="round" stroke-linejoin="round"/>
<path d="M6.73145 35.3602L6.73145 25.1844C6.73145 24.4819 7.30093 23.9124 8.00342 23.9124L13.1168 23.9124C13.8193 23.9124 14.3887 24.4819 14.3887 25.1844L14.3887 35.3602C14.3887 36.0627 13.8193 36.6322 13.1168 36.6322L8.00342 36.6322C7.30093 36.6322 6.73145 36.0627 6.73145 35.3602Z" stroke="white" stroke-width="2" stroke-linecap="round" stroke-linejoin="round"/>
<path d="M6.73169 17.5529L6.73169 7.37708C6.73169 6.67459 7.30117 6.1051 8.00367 6.1051L23.2674 6.1051C23.9699 6.1051 24.5394 6.67459 24.5394 7.37708L24.5394 17.5529C24.5394 18.2554 23.9699 18.8249 23.2674 18.8249L8.00367 18.8249C7.30117 18.8249 6.73169 18.2554 6.73169 17.5529Z" stroke="white" stroke-width="2" stroke-linecap="round" stroke-linejoin="round"/>
<path d="M29.5963 17.5533L29.5963 7.37751C29.5963 6.67501 30.1658 6.10553 30.8683 6.10553L35.9816 6.10553C36.6841 6.10553 37.2536 6.67501 37.2536 7.37751L37.2536 17.5533C37.2536 18.2558 36.6841 18.8253 35.9816 18.8253L30.8683 18.8253C30.1658 18.8253 29.5963 18.2558 29.5963 17.5533Z" stroke="white" stroke-width="2" stroke-linecap="round" stroke-linejoin="round"/>
</svg>
