<svg width="35" height="35" viewBox="0 0 35 35" fill="none" xmlns="http://www.w3.org/2000/svg">
<path fill-rule="evenodd" clip-rule="evenodd" d="M18.5086 2.91669C14.9415 2.91669 12.0394 5.81877 12.0394 9.38585V10.745C12.0394 11.3488 12.5294 11.8388 13.1332 11.8388C13.7369 11.8388 14.2269 11.3488 14.2269 10.745V9.38585C14.2269 7.02335 16.1476 5.10419 18.5086 5.10419H25.618C27.9761 5.10419 29.8953 7.02335 29.8953 9.38585V25.6156C29.8953 27.9767 27.9761 29.8959 25.618 29.8959H18.4926C16.1417 29.8959 14.2269 27.9825 14.2269 25.6317V24.2565C14.2269 23.6527 13.7369 23.1627 13.1332 23.1627C12.5294 23.1627 12.0394 23.6527 12.0394 24.2565V25.6317C12.0394 29.19 14.9357 32.0834 18.4926 32.0834H25.618C29.1821 32.0834 32.0828 29.1827 32.0828 25.6156V9.38585C32.0828 5.81877 29.1821 2.91669 25.618 2.91669H18.5086ZM6.72511 12.4746L2.45511 16.7256C2.41702 16.7634 2.38291 16.8027 2.35169 16.8443L2.45511 16.7256C2.40344 16.7766 2.3575 16.8322 2.31763 16.8916C2.30008 16.9185 2.28316 16.9463 2.26747 16.9749C2.25474 16.9972 2.24303 17.0205 2.23217 17.0442C2.22296 17.0652 2.21412 17.0861 2.20593 17.1074C2.19493 17.1351 2.18531 17.1636 2.17686 17.1925C2.1705 17.2152 2.16465 17.2379 2.15952 17.2609C2.15301 17.2887 2.14788 17.3167 2.14384 17.345C2.14156 17.3633 2.13933 17.3826 2.1376 17.402C2.13426 17.4352 2.13282 17.4676 2.13282 17.5L2.14026 17.5904L2.14325 17.6484C2.14359 17.6508 2.14393 17.6533 2.14428 17.6558L2.13282 17.5C2.13282 17.581 2.14179 17.6611 2.15921 17.7391C2.16465 17.7621 2.1705 17.7848 2.17705 17.8072C2.18531 17.8364 2.19493 17.8649 2.20572 17.893C2.21412 17.9139 2.22296 17.9349 2.23242 17.9555C2.24303 17.9795 2.25474 18.0028 2.26729 18.0257C2.28316 18.0537 2.30008 18.0815 2.31817 18.1085C2.32841 18.1245 2.33964 18.1403 2.35131 18.1558C2.38603 18.2014 2.42386 18.2444 2.4648 18.2842L6.72511 22.5269C6.93803 22.7398 7.21803 22.8463 7.49657 22.8463C7.77657 22.8463 8.05803 22.7398 8.27095 22.524C8.69678 22.0952 8.69532 21.404 8.26803 20.9781L5.87651 18.5938H20.7868C21.3906 18.5938 21.8806 18.1038 21.8806 17.5C21.8806 16.8963 21.3906 16.4063 20.7868 16.4063H5.87359L8.26803 14.0234C8.69532 13.5975 8.69824 12.9063 8.27095 12.4775C7.84512 12.0488 7.15387 12.0488 6.72511 12.4746Z" fill="#F1F1F9"/>
</svg>
