<svg width="32" height="28" viewBox="0 0 32 28" fill="none" xmlns="http://www.w3.org/2000/svg">
<path d="M10.2307 18.5696L27.9538 24.4772C28.3009 24.5917 28.6701 24.6222 29.0313 24.5659C29.3922 24.5098 29.7349 24.3685 30.0307 24.1542C30.3289 23.9418 30.5723 23.6617 30.741 23.3365C30.9095 23.0116 30.9983 22.6512 30.9999 22.2849V3.29266C30.9983 2.92655 30.9095 2.56609 30.741 2.24107C30.5723 1.91606 30.3289 1.63579 30.0307 1.42343C29.7328 1.21283 29.3894 1.07585 29.0283 1.02369C28.6673 0.971562 28.299 1.00574 27.9538 1.12343L10.2307 7.03113V18.5696Z" stroke="white" stroke-width="2" stroke-linecap="round" stroke-linejoin="round"/>
<path d="M1 12.8005C1 13.5581 1.14922 14.3083 1.43916 15.0083C1.72909 15.7082 2.15405 16.3442 2.68976 16.88C3.7717 17.9619 5.23914 18.5697 6.76923 18.5697H10.2308V7.03125H6.76923C6.01162 7.03125 5.26141 7.18047 4.56144 7.4704C3.86149 7.76034 3.22549 8.1853 2.68976 8.72101C1.60783 9.80295 1 11.2704 1 12.8005Z" stroke="white" stroke-width="2" stroke-linecap="round" stroke-linejoin="round"/>
<path d="M6.76929 18.5697V20.8775C6.76929 21.6351 6.9185 22.3853 7.20844 23.0853C7.49838 23.7852 7.92334 24.4212 8.45905 24.9568C8.99478 25.4926 9.63078 25.9175 10.3307 26.2076C11.0307 26.4974 11.7809 26.6467 12.5385 26.6467" stroke="white" stroke-width="2" stroke-linecap="round" stroke-linejoin="round"/>
</svg>
