<svg width="34" height="39" viewBox="0 0 34 39" fill="none" xmlns="http://www.w3.org/2000/svg">
<path d="M32.983 34.0384C33.026 34.4197 32.9874 34.8057 32.8702 35.1713C32.753 35.5366 32.5601 35.8731 32.3035 36.1586C32.0463 36.4434 31.7315 36.6709 31.3804 36.8253C31.0289 36.98 30.6486 37.0586 30.2648 37.0556H3.73517C3.35128 37.0586 2.97114 36.98 2.61975 36.8253C2.26837 36.6709 1.95371 36.4434 1.69652 36.1586C1.44 35.8731 1.24684 35.5366 1.12972 35.1713C1.01259 34.8057 0.974154 34.4197 1.01697 34.0384L3.40899 12.5917H30.591L32.983 34.0384Z" stroke="white" stroke-width="2" stroke-linecap="round" stroke-linejoin="round"/>
<path d="M10.2045 12.5917V8.51444C10.2045 6.71216 10.9204 4.98369 12.1948 3.70928C13.4692 2.43489 15.1977 1.71893 17 1.71893C18.8023 1.71893 20.5307 2.43489 21.8051 3.70928C23.0795 4.98369 23.7955 6.71216 23.7955 8.51444V12.5917" stroke="white" stroke-width="2" stroke-linecap="round" stroke-linejoin="round"/>
</svg>
