<svg width="30" height="31" viewBox="0 0 30 31" fill="none" xmlns="http://www.w3.org/2000/svg">
<path d="M1 20.3338V23.8133C1 25.9789 1 27.0609 1.33909 27.888C1.63736 28.6156 2.11295 29.2083 2.69833 29.579C3.36318 30 4.23396 30 5.97292 30H29M1 20.3338V1M1 20.3338L6.99411 14.1255L6.99907 14.1206C8.0834 12.9975 8.62662 12.4349 9.21565 12.2063C9.91148 11.9364 10.661 11.9791 11.3343 12.3262C11.9051 12.6205 12.4056 13.2426 13.4066 14.4867L13.4166 14.4992C14.4332 15.7626 14.9428 16.396 15.5228 16.6897C16.2091 17.0372 16.9731 17.0671 17.6765 16.7771C18.2728 16.5312 18.8175 15.9399 19.9065 14.7556L28.9996 4.86667" stroke="white" stroke-width="2" stroke-linecap="round" stroke-linejoin="round"/>
</svg>
