<svg width="36" height="37" viewBox="0 0 36 37" fill="none" xmlns="http://www.w3.org/2000/svg">
<path d="M10.1948 12.0751C13.0967 12.0751 15.449 9.72275 15.449 6.82095C15.449 3.91915 13.0967 1.56677 10.1948 1.56677C7.29305 1.56677 4.94067 3.91915 4.94067 6.82095C4.94067 9.72275 7.29305 12.0751 10.1948 12.0751Z" stroke="white" stroke-width="2" stroke-linecap="round" stroke-linejoin="round"/>
<path d="M14.6251 27.902L13.648 35.7189H6.7724L5.45886 25.2106H1V21.2699C1 18.8313 1.96874 16.4926 3.69309 14.7682C5.41745 13.0439 7.75619 12.0751 10.1948 12.0751C12.6334 12.0751 14.9721 13.0439 16.6965 14.7682C18.0228 16.0945 18.9021 17.7843 19.2374 19.6034" stroke="white" stroke-width="2" stroke-linecap="round" stroke-linejoin="round"/>
<path d="M18.7739 26.4466C18.7739 25.1664 19.8118 24.1285 21.092 24.1285H32.6822C33.9624 24.1285 35.0001 25.1664 35.0001 26.4466V33.4008C35.0001 34.6809 33.9624 35.7186 32.6822 35.7186H21.092C19.8118 35.7186 18.7739 34.6809 18.7739 33.4008V26.4466Z" stroke="white" stroke-width="2" stroke-linecap="round" stroke-linejoin="round"/>
<path d="M23.7151 24.1287V22.4187C23.7151 20.9677 24.8913 19.7916 26.3422 19.7916H27.4262C28.8768 19.7916 30.0532 20.9677 30.0532 22.4187V24.1287" stroke="white" stroke-width="2" stroke-linecap="round" stroke-linejoin="round"/>
</svg>
