<svg width="30" height="31" viewBox="0 0 30 31" fill="none" xmlns="http://www.w3.org/2000/svg">
<path d="M22.7778 29.5668C22.7778 25.2712 19.2955 21.789 15 21.789C10.7045 21.789 7.22222 25.2712 7.22222 29.5668M22.7778 29.5668H24.027C25.766 29.5668 26.6355 29.5668 27.3004 29.228C27.8858 28.9297 28.363 28.4526 28.6612 27.8672C29 27.2023 29 26.3328 29 24.5938V6.53974C29 4.80076 29 3.92998 28.6612 3.26512C28.363 2.67973 27.8858 2.20414 27.3004 1.90586C26.6349 1.56677 25.7649 1.56677 24.0225 1.56677H5.97808C4.2357 1.56677 3.36385 1.56677 2.69835 1.90586C2.11296 2.20414 1.63736 2.67973 1.33909 3.26512C1 3.93063 1 4.80247 1 6.54485V24.5893C1 26.3317 1 27.2017 1.33909 27.8672C1.63736 28.4526 2.11296 28.9297 2.69835 29.228C3.3632 29.5668 4.23399 29.5668 5.97297 29.5668H7.22222M22.7778 29.5668H7.22222M15 17.1223C12.4227 17.1223 10.3333 15.033 10.3333 12.4557C10.3333 9.87833 12.4227 7.78899 15 7.78899C17.5773 7.78899 19.6667 9.87833 19.6667 12.4557C19.6667 15.033 17.5773 17.1223 15 17.1223Z" stroke="white" stroke-width="2" stroke-linecap="round" stroke-linejoin="round"/>
</svg>
