<svg width="30" height="39" viewBox="0 0 30 39" fill="none" xmlns="http://www.w3.org/2000/svg">
<path d="M21 19.0557L14.0142 26.0415C13.2332 26.8226 11.9668 26.8225 11.1858 26.0415L9.00012 23.8557M9 4.05566H3C1.89543 4.05566 1 4.95109 1 6.05566V35.0557C1 36.1602 1.89543 37.0557 3 37.0557H27C28.1046 37.0557 29 36.1602 29 35.0557V6.05566C29 4.95109 28.1046 4.05566 27 4.05566H21M9 4.05566V5.05566C9 6.16023 9.89543 7.05566 11 7.05566H19C20.1046 7.05566 21 6.16023 21 5.05566V4.05566M9 4.05566V3.05566C9 1.95109 9.89543 1.05566 11 1.05566H19C20.1046 1.05566 21 1.95109 21 3.05566V4.05566" stroke="white" stroke-width="2" stroke-linecap="round" stroke-linejoin="round"/>
</svg>
