<svg width="30" height="39" viewBox="0 0 30 39" fill="none" xmlns="http://www.w3.org/2000/svg">
<path d="M7 29.0557H23M7 21.0557H19M9 4.05566H4C2.34315 4.05566 1 5.39881 1 7.05566V34.0557C1 35.7125 2.34315 37.0557 4 37.0557H26C27.6569 37.0557 29 35.7125 29 34.0557V7.05566C29 5.39881 27.6569 4.05566 26 4.05566H21M9 4.05566V4.05566C9 5.71252 10.3431 7.05566 12 7.05566H18C19.6569 7.05566 21 5.71252 21 4.05566V4.05566M9 4.05566V4.05566C9 2.39881 10.3431 1.05566 12 1.05566H18C19.6569 1.05566 21 2.39881 21 4.05566V4.05566" stroke="white" stroke-width="2" stroke-linecap="round" stroke-linejoin="round"/>
</svg>
