<svg width="30" height="39" viewBox="0 0 30 39" fill="none" xmlns="http://www.w3.org/2000/svg">
<path d="M7 29.1357H23M7 21.1357H19M9 4.13574H4C2.34315 4.13574 1 5.47889 1 7.13574V34.1357C1 35.7926 2.34315 37.1357 4 37.1357H26C27.6569 37.1357 29 35.7926 29 34.1357V7.13574C29 5.47889 27.6569 4.13574 26 4.13574H21M9 4.13574V4.13574C9 5.7926 10.3431 7.13574 12 7.13574H18C19.6569 7.13574 21 5.7926 21 4.13574V4.13574M9 4.13574V4.13574C9 2.47889 10.3431 1.13574 12 1.13574H18C19.6569 1.13574 21 2.47889 21 4.13574V4.13574" stroke="white" stroke-width="2" stroke-linecap="round" stroke-linejoin="round"/>
</svg>
