<svg width="30" height="36" viewBox="0 0 30 36" fill="none" xmlns="http://www.w3.org/2000/svg">
<path d="M29 31.681C29 32.3561 28.7317 33.0036 28.2544 33.4809C27.7769 33.9582 27.1296 34.2264 26.4545 34.2264H3.54544C2.87034 34.2264 2.2229 33.9582 1.74553 33.4809C1.26818 33.0036 1 32.3561 1 31.681V3.68118C1 3.00608 1.26818 2.35865 1.74553 1.88128C2.2229 1.40392 2.87034 1.13574 3.54544 1.13574H17.7637C18.4388 1.13574 19.0863 1.40392 19.5636 1.88128L28.2544 10.572C28.7317 11.0493 29 11.6968 29 12.3718V31.681Z" stroke="white" stroke-width="2" stroke-linecap="round" stroke-linejoin="round"/>
<path d="M16.4219 16.0898H22.7855" stroke="white" stroke-width="2" stroke-linecap="round" stroke-linejoin="round"/>
<path d="M16.4219 24.9199H22.7855" stroke="white" stroke-width="2" stroke-linecap="round" stroke-linejoin="round"/>
<path d="M6.57812 24.7754L8.71092 26.9082L12.2656 21.9316" stroke="white" stroke-width="2" stroke-linecap="round" stroke-linejoin="round"/>
<path d="M6.57812 15.7871L8.71092 17.9199L12.2656 12.9434" stroke="white" stroke-width="2" stroke-linecap="round" stroke-linejoin="round"/>
</svg>
